<svg width="19" height="18" viewBox="0 0 19 18" fill="none" xmlns="http://www.w3.org/2000/svg">
<path d="M9.57731 3C7.91996 3 6.33049 3.63214 5.15856 4.75736C3.98664 5.88258 3.32826 7.4087 3.32826 9C3.32826 10.5913 3.98664 12.1174 5.15856 13.2426C6.33049 14.3679 7.91996 15 9.57731 15C11.2347 15 12.8241 14.3679 13.9961 13.2426C15.168 12.1174 15.8264 10.5913 15.8264 9C15.8264 7.4087 15.168 5.88258 13.9961 4.75736C12.8241 3.63214 11.2347 3 9.57731 3ZM1.76599 9C1.76599 4.85775 5.26312 1.5 9.57731 1.5C13.8915 1.5 17.3886 4.85775 17.3886 9C17.3886 13.1423 13.8915 16.5 9.57731 16.5C5.26312 16.5 1.76599 13.1423 1.76599 9Z" fill="#7A7790"/>
<path d="M12.473 6.96971C12.6195 7.11036 12.7017 7.30109 12.7017 7.49996C12.7017 7.69883 12.6195 7.88957 12.473 8.03021L9.34849 11.0302C9.20201 11.1708 9.00336 11.2498 8.79623 11.2498C8.5891 11.2498 8.39046 11.1708 8.24397 11.0302L6.68171 9.53021C6.6071 9.46103 6.54759 9.37827 6.50665 9.28677C6.46572 9.19526 6.44417 9.09685 6.44327 8.99726C6.44237 8.89768 6.46213 8.79892 6.50141 8.70675C6.54068 8.61457 6.59868 8.53084 6.67203 8.46042C6.74537 8.39 6.83258 8.33431 6.92858 8.2966C7.02458 8.25889 7.12744 8.23991 7.23116 8.24077C7.33487 8.24164 7.43738 8.26233 7.53268 8.30164C7.62798 8.34094 7.71417 8.39808 7.78623 8.46971L8.79623 9.43946L11.3685 6.96971C11.515 6.82911 11.7136 6.75012 11.9208 6.75012C12.1279 6.75012 12.3265 6.82911 12.473 6.96971Z" fill="#7A7790"/>
</svg>
