<svg width="392" height="448" viewBox="0 0 392 448" fill="none" xmlns="http://www.w3.org/2000/svg">
<g clip-path="url(#clip0_1_1205)">
<path d="M338.242 49.728L224.644 67.206L225.767 78.65L228.101 80.106L229.006 83.019V86.764L226.91 90.301L231.065 132.643L294.037 122.864L299.553 107.051L308.278 90.301L321.12 70.327L338.242 49.728Z" fill="url(#paint0_linear_1_1205)"/>
<path d="M178.712 97.022C179.643 99.839 180.769 102.005 182.028 103.441C177.856 103.574 170.814 104.082 163.451 105.846C156.632 107.481 150.865 109.862 146.313 112.92C140.532 116.807 136.69 121.813 134.888 127.797L136.428 128.536C138.074 123.041 141.663 118.407 147.074 114.766C147.918 114.196 148.778 113.667 149.653 113.18V178.472C136.588 171.19 126.326 163.882 119.103 154.436L116.216 150.275C111.397 142.624 108.345 133.573 107.161 122.208C106.777 118.42 106.59 114.605 106.601 110.786C106.601 96.656 111.013 84.107 119.714 73.483C126.729 64.919 136.532 57.57 148.844 51.636C158.97 46.759 169.162 43.655 177.038 41.745C176.709 45.673 175.83 57.408 175.83 73.641C175.83 83.227 176.826 91.306 178.712 97.021V97.022Z" fill="white"/>
<path d="M345.056 243L391.995 340.683L252.187 447.998L201.151 341.813L313.793 255.357C313.977 255.626 314.172 255.882 314.376 256.125L202.286 342.162L252.461 446.568L390.866 340.333L344.34 243.518C344.58 243.362 344.822 243.189 345.056 243Z" fill="#1A1A1A"/>
<path d="M344.343 243.518L390.869 340.334L252.464 446.569L202.29 342.163L314.38 256.131C314.587 256.385 314.807 256.622 315.038 256.84L203.416 342.518L252.735 445.146L389.738 339.982L343.607 243.992L344.289 243.553L344.343 243.518Z" fill="#1A1A1A"/>
<path d="M343.607 243.994L389.737 339.982L252.739 445.139L203.419 342.512L315.041 256.834C316.295 258.028 317.829 258.659 319.399 258.626C321.256 258.626 322.779 257.87 323.927 256.383C325.431 254.429 326.121 251.418 326.418 248.104L336.905 240.053L340.418 237.349L343.607 243.994Z" fill="url(#paint1_linear_1_1205)"/>
<path d="M353.848 213.461C353.848 219.769 352.985 226.192 351.421 231.548C349.83 236.993 347.634 240.923 345.056 242.992L344.202 241.215C346.465 239.382 348.417 235.815 349.877 230.811C351.374 225.68 352.201 219.513 352.201 213.444C352.201 206.865 348.759 201.334 345.114 195.477C341.034 188.923 336.814 182.146 336.321 172.825C335.497 157.37 337.661 142.435 339.614 132.626C341.505 123.141 343.583 116.474 344.022 115.105L344.048 115.375L344.872 115.251L345.629 115.654C345.608 115.723 343.296 122.695 341.209 133.176C339.284 142.828 337.16 157.52 337.966 172.686C338.427 181.366 342.484 187.885 346.409 194.191C350.234 200.354 353.848 206.162 353.848 213.461Z" fill="#1A1A1A"/>
<path d="M339.572 51.786L345.685 115.14L344.862 115.267L344.103 114.851L344.018 115.111L338.027 52.961C338.406 52.59 338.787 52.219 339.169 51.848L339.572 51.786ZM344.201 241.223L345.056 243C344.822 243.189 344.584 243.362 344.343 243.518L340.695 235.928L336.768 238.94L336.716 238.524C336.687 238.294 336.661 238.063 336.638 237.831L338.187 236.641L340.969 234.507L344.201 241.223Z" fill="#1A1A1A"/>
<path d="M344.868 115.269L344.045 115.394L344.019 115.124C344.071 114.959 344.102 114.872 344.103 114.863L344.868 115.269ZM344.343 243.518L344.288 243.555L343.607 243.994L340.418 237.357L336.905 240.062L336.768 238.949L340.695 235.936L344.343 243.518ZM339.243 48.365L339.572 51.785L339.169 51.848L338.169 50.196L337.641 50.708L337.552 50.723L338.525 49.524L236.387 65.237C236.619 64.869 236.838 64.484 237.046 64.087L339.243 48.365Z" fill="#1A1A1A"/>
<path d="M338.169 50.196L339.169 51.848C338.787 52.218 338.406 52.588 338.027 52.961L337.807 50.683L337.643 50.708L338.169 50.196ZM338.525 49.52L337.552 50.718L235.575 66.408L235.781 66.13C235.992 65.843 236.194 65.545 236.387 65.237L338.525 49.52ZM338.187 236.633L336.638 237.823C336.474 236.144 336.39 234.286 336.309 232.334C335.98 224.54 335.486 219.018 331.847 219.018C330.181 219.018 328.846 220.655 327.877 223.885C327.001 226.798 326.519 230.809 326.519 235.158C326.519 236.198 326.541 237.322 326.566 238.522C326.612 240.753 326.661 243.177 326.574 245.544L325.196 246.601L324.878 246.572C325.03 243.94 324.972 241.123 324.92 238.576C324.895 237.361 324.872 236.215 324.872 235.158C324.872 226.752 326.697 216.937 331.847 216.937C334.317 216.937 336.022 218.718 336.927 222.231C337.659 225.077 337.809 228.71 337.954 232.218C338.018 233.778 338.079 235.27 338.187 236.633Z" fill="#1A1A1A"/>
<path d="M337.807 50.683L338.027 52.961C327.87 62.949 319.116 73.976 311.908 85.836L311.693 85.628L319.047 73.512L337.26 51.08L337.641 50.708L337.807 50.683Z" fill="#1A1A1A"/>
<path d="M337.261 51.08L319.047 73.506L311.693 85.622L304.488 97.482L299.513 110.016L294.347 123.032L294.248 121.992L293.755 122.067C296.763 112.346 300.567 103.049 305.104 94.325C313.332 78.473 324.146 63.922 337.261 51.08ZM336.768 238.94L336.905 240.054L326.418 248.104C326.456 247.676 326.488 247.246 326.513 246.812L336.768 238.94ZM336.715 238.516L336.768 238.932L326.513 246.803C326.538 246.387 326.559 245.971 326.574 245.54L336.639 237.815C336.661 238.058 336.688 238.289 336.715 238.516Z" fill="#1A1A1A"/>
<path d="M325.196 246.605L326.574 245.548C326.559 245.969 326.539 246.39 326.513 246.811L325.624 247.494L325.196 246.605ZM325.624 247.494L326.513 246.812C326.487 247.246 326.455 247.676 326.418 248.104L326.052 248.385L325.624 247.494Z" fill="#1A1A1A"/>
<path d="M326.052 248.384L326.418 248.103C326.121 251.418 325.43 254.429 323.927 256.382C322.774 257.87 321.256 258.625 319.399 258.625C317.829 258.659 316.295 258.029 315.041 256.834L315.341 256.605L314.913 255.714C314.913 255.714 319.029 259.42 322.31 256.674C325.591 253.927 325.625 247.494 325.625 247.494L326.052 248.384Z" fill="#1A1A1A"/>
<path d="M325.196 246.606L325.624 247.494C325.624 247.494 325.596 253.93 322.31 256.674C319.024 259.418 314.913 255.715 314.913 255.715L314.487 254.826L313.797 255.357C312.929 254.046 312.235 252.566 311.742 250.975C310.37 246.762 309.766 241.385 309.235 236.643C308.66 231.519 308.008 225.713 306.52 225.713C304.801 225.713 301.431 230.291 298.173 234.702C295.374 238.495 292.209 242.792 289.138 245.621C285.402 249.061 282.344 249.839 279.785 248C279.012 247.471 278.351 246.716 277.856 245.798C277.361 244.881 277.047 243.827 276.94 242.725C276.535 239.259 277.743 234.787 279.692 230.147C280.834 229.185 281.933 228.143 282.984 227.026L283.015 227.051C279.695 233.709 278.17 238.963 278.57 242.417C278.642 243.206 278.865 243.961 279.218 244.618C279.572 245.274 280.047 245.813 280.601 246.187C281.229 246.638 281.939 246.871 282.661 246.864C286.955 246.864 292.436 239.429 296.97 233.281C300.946 227.888 304.087 223.629 306.519 223.629C309.436 223.629 310.066 229.246 310.863 236.346C311.383 240.969 311.971 246.208 313.263 250.18C314.676 254.518 316.625 256.541 319.398 256.541C320.814 256.541 321.908 256.012 322.745 254.926C324.129 253.131 324.68 250.01 324.877 246.572L325.196 246.606Z" fill="#1A1A1A"/>
<path d="M314.913 255.715L315.341 256.605L315.041 256.834C314.81 256.616 314.59 256.379 314.383 256.125L314.913 255.715Z" fill="#1A1A1A"/>
<path d="M314.487 254.826L314.913 255.715L314.38 256.131C314.175 255.888 313.98 255.632 313.797 255.363L314.487 254.826ZM311.693 85.622L311.908 85.83C310.017 88.9402 308.219 92.1384 306.517 95.418C304.048 100.174 301.794 105.102 299.767 110.18L299.518 110.022L304.494 97.488L311.693 85.622ZM294.477 205.329L295.671 206.763C292.437 211.149 289.394 215.752 286.554 220.553C285.307 222.662 284.125 224.831 283.01 227.055L282.979 227.03L281.922 225.434L281.83 225.532C286.87 215.493 293.998 205.964 294.477 205.329ZM294.347 123.04L299.513 110.024L299.762 110.182C296.438 118.483 293.766 127.175 291.783 136.134C286.446 160.343 288.287 177.879 288.305 178.053L288.369 178.634L288.008 179.004C287.939 179.077 280.943 186.27 274.551 194.401C270.819 199.143 268.025 203.263 266.249 206.646C264.213 210.52 263.537 213.377 264.293 214.906C264.77 215.876 265.37 216.436 266.127 216.621C267.506 216.96 269.477 216.04 271.685 214.03C270.909 215.306 270.179 216.625 269.497 217.984C268.619 218.466 267.676 218.73 266.718 218.762C266.414 218.763 266.111 218.727 265.812 218.656C264.601 218.358 263.62 217.466 262.895 216.001C260.906 211.968 264.339 204.418 273.391 192.905C279.023 185.75 285.115 179.312 286.621 177.743C286.348 174.458 285.315 157.769 290.173 135.67C291.019 131.82 291.994 128.017 293.097 124.272L294.447 124.064L294.347 123.024V123.04Z" fill="#1A1A1A"/>
<path d="M294.347 123.043L294.447 124.083L293.097 124.291L293.427 123.193L294.347 123.043Z" fill="#1A1A1A"/>
<path d="M294.249 122.008L294.347 123.049L293.423 123.19L293.753 122.09L294.249 122.008Z" fill="#1A1A1A"/>
<path d="M231.502 131.665L293.758 122.094L293.428 123.194L230.785 132.824L226.738 90.879C227.004 90.678 227.259 90.455 227.502 90.214L231.502 131.665Z" fill="#1A1A1A"/>
<path d="M230.785 132.824L293.423 123.176L293.094 124.274L230.064 133.974L225.948 91.408C226.22 91.24 226.479 91.063 226.726 90.871L230.785 132.824ZM284.378 197.3L285.45 198.879C285.397 198.937 280.031 204.786 275.366 211.607C274.469 212.916 273.606 214.262 272.78 215.643L272.752 215.616L271.78 213.935L271.685 214.022C272.471 212.728 273.287 211.464 274.132 210.231C278.874 203.296 284.324 197.36 284.378 197.3ZM281.922 225.435L282.979 227.031C281.928 228.147 280.828 229.189 279.686 230.152C280.352 228.579 281.066 227.04 281.827 225.537L281.922 225.435Z" fill="#1A1A1A"/>
<path d="M281.83 225.532C281.071 227.036 280.356 228.575 279.689 230.147C277.314 232.136 274.664 233.728 272.281 233.73C272.035 233.73 271.788 233.712 271.544 233.676C270.8 233.573 270.083 233.272 269.438 232.794C268.794 232.316 268.236 231.67 267.803 230.901C266.102 228.023 266.676 223.693 269.5 217.984C270.656 217.36 271.748 216.565 272.755 215.616L272.783 215.643C268.899 222.178 267.601 227.087 269.122 229.656C269.421 230.199 269.81 230.654 270.261 230.991C270.712 231.329 271.215 231.539 271.736 231.61C275.007 232.093 279.426 228.056 281.83 225.532Z" fill="#1A1A1A"/>
<path d="M271.78 213.935L272.752 215.616C271.745 216.565 270.652 217.36 269.497 217.984C270.178 216.625 270.909 215.305 271.685 214.03L271.78 213.935ZM237.783 44.439C238.747 46.792 239.214 50.155 239.214 54.722C239.22 58.0418 238.467 61.2932 237.044 64.085L234.777 64.432C236.529 61.896 237.576 58.296 237.576 54.724C237.576 46.089 235.9 42.24 232.143 42.24C228.203 42.24 222.669 47.78 222.614 47.837L221.539 46.264C223.885 43.4261 226.095 40.4141 228.157 37.244C232.395 30.69 234.614 25.254 234.578 21.524C234.562 19.9 234.122 18.628 233.236 17.638C232.933 17.2703 232.569 16.9924 232.17 16.8243C231.772 16.6562 231.349 16.6021 230.931 16.666C227.224 17.19 222.566 25.38 219.484 30.8C218.556 32.431 217.752 33.842 217.11 34.816C216.593 35.6 215.628 37.059 214.699 36.224C213.721 35.349 214.302 33.597 216.924 26.314C219.59 18.914 224.05 6.527 222.247 2.986C222.051 2.601 221.668 2.086 220.601 2.086C214.656 2.086 209.17 17.394 206.221 25.619C204.481 30.478 203.944 31.892 203.195 32.211C203.07 32.2659 202.937 32.2871 202.804 32.2731C202.672 32.2592 202.543 32.2104 202.426 32.13C201.627 31.578 201.604 30.182 201.604 24.926C201.62 19.101 201.646 9.367 199.246 6.326C199.03 6.03586 198.769 5.80486 198.479 5.6473C198.189 5.48973 197.877 5.40897 197.562 5.41C196.991 5.41 196.472 5.724 195.975 6.373C192.318 11.159 192.023 30.777 192.209 37.937L192.236 38.921L191.46 39.008C191.356 39.018 186.304 39.606 178.731 41.36C178.773 40.873 178.799 40.613 178.802 40.596L177.168 40.328C177.168 40.353 177.117 40.844 177.038 41.759C169.162 43.669 158.97 46.773 148.844 51.651C136.532 57.581 126.729 64.93 119.714 73.498C111.013 84.118 106.601 96.666 106.601 110.796C106.59 114.615 106.777 118.431 107.161 122.219L106.85 122.269L105.777 111.732V110.692H104.955C104.976 96.012 109.564 82.99 118.581 71.992C125.763 63.23 135.758 55.731 148.29 49.699C167.285 40.559 186.508 37.589 190.545 37.042C190.464 32.128 190.381 10.705 194.791 4.935C195.602 3.875 196.535 3.337 197.562 3.337C198.096 3.33054 198.627 3.46212 199.12 3.72367C199.613 3.98522 200.058 4.37122 200.429 4.858C203.311 8.512 203.286 18.006 203.266 24.937C203.266 26.227 203.266 27.608 203.286 28.692C203.716 27.598 204.242 26.129 204.732 24.762C208.051 15.495 213.604 0 220.61 0C222.327 0 223.202 1.007 223.633 1.854C225.75 6.015 222.527 15.778 218.424 27.169C217.817 28.859 217.166 30.663 216.679 32.129C217.148 31.337 217.667 30.436 218.149 29.579C221.595 23.519 226.315 15.222 230.75 14.598C231.396 14.5009 232.05 14.5832 232.668 14.839C233.286 15.0948 233.852 15.518 234.326 16.079C235.563 17.461 236.199 19.284 236.223 21.489C236.287 27.769 231.223 36.17 227.259 41.776C228.847 40.852 230.567 40.155 232.135 40.155C234.722 40.157 236.623 41.597 237.783 44.439Z" fill="#1A1A1A"/>
<path d="M234.777 64.434L237.044 64.087C236.838 64.484 236.619 64.869 236.386 65.237L225.663 66.885C225.526 66.5665 225.411 66.234 225.319 65.891L234.777 64.434ZM225.664 66.885L236.387 65.237C236.195 65.545 235.994 65.843 235.781 66.13L235.575 66.409L235.291 66.455L226.063 67.718L225.79 67.16C225.745 67.0702 225.704 66.9785 225.664 66.885ZM235.575 66.409L235.572 66.415L235.291 66.455L235.575 66.409ZM229.269 81.146C230.144 83.726 230.037 86.183 228.959 88.248C228.563 88.999 228.07 89.6614 227.502 90.208L227.443 89.594L226.62 89.719C226.62 89.719 229.537 87.355 228.824 82.707C228.18 78.514 226.026 78.564 225.617 78.614L226.366 78.497L226.281 77.607C227.361 77.78 228.431 78.679 229.269 81.147V81.146Z" fill="#1A1A1A"/>
<path d="M226.962 65.502L234.777 64.43L225.321 65.887C224.894 64.33 224.853 62.527 224.815 60.893C224.731 57.356 224.512 56.593 223.574 56.593C222.999 56.593 221.598 58.088 220.092 62.21C218.727 65.94 217.881 70.266 217.881 73.496C217.881 75.329 218.149 76.808 218.658 77.776C219.187 78.781 219.986 79.269 221.105 79.269C221.746 79.269 222.471 78.885 223.244 78.477C223.703 78.2215 224.173 78.0018 224.652 77.819L224.743 78.751L225.565 78.626L225.635 78.616C226.05 78.566 228.199 78.516 228.842 82.709C229.555 87.357 226.638 89.721 226.638 89.721L225.814 89.848L225.546 89.34C226.365 88.8213 227.067 88.0532 227.591 87.105C228.35 85.649 228.414 83.874 227.755 81.968C226.713 78.895 225.706 79.428 223.875 80.398C222.991 80.865 222.077 81.35 221.105 81.35C219.44 81.35 218.121 80.518 217.286 78.928C216.588 77.601 216.234 75.772 216.234 73.496C216.234 69.929 217.116 65.381 218.597 61.338C219.53 58.791 221.417 54.514 223.574 54.514C226.313 54.514 226.394 58.017 226.46 60.834C226.499 62.505 226.537 64.224 226.962 65.502ZM227.442 89.6L227.502 90.214C227.258 90.4558 227.003 90.6782 226.738 90.88L226.626 89.725L227.442 89.6Z" fill="#1A1A1A"/>
<path d="M226.626 89.725L226.738 90.88C226.491 91.071 226.231 91.248 225.959 91.417L225.808 89.852L226.626 89.725ZM226.287 77.609L226.372 78.499L225.623 78.616L225.554 78.626L225.457 77.611C225.732 77.568 226.011 77.567 226.287 77.609Z" fill="#1A1A1A"/>
<path d="M226.063 67.717L235.291 66.454L225.357 67.982L226.287 77.613C226.014 77.571 225.737 77.571 225.464 77.613L224.446 67.073L225.672 66.883C225.711 66.977 225.752 67.068 225.797 67.158L226.063 67.718V67.717ZM225.808 89.852L225.959 91.416C224.043 92.59 221.497 93.214 218.47 93.214C214.684 93.214 211.061 91.164 208.028 87.288C206.024 84.6967 204.418 81.6587 203.291 78.328C198.565 79.1886 193.88 80.3774 189.258 81.889C189.231 81.5851 189.203 81.2814 189.174 80.978L188.35 81.107L187.527 81.234L187.547 81.427L178.036 85.237C177.996 84.871 177.959 84.5 177.924 84.124C190.91 78.119 203.577 76.18 203.707 76.159L204.348 76.063L204.575 76.827C206.041 81.775 210.831 91.133 218.457 91.133C221.383 91.133 223.819 90.509 225.527 89.344L225.808 89.852Z" fill="#1A1A1A"/>
<path d="M225.664 66.885L224.44 67.075L225.457 77.615C225.183 77.657 224.912 77.7269 224.648 77.824L223.523 66.172L224.346 66.045L225.325 65.895C225.417 66.237 225.53 66.568 225.664 66.885Z" fill="#1A1A1A"/>
<path d="M225.457 77.61L225.554 78.624L224.731 78.749L224.641 77.817C224.908 77.72 225.181 77.6505 225.457 77.609V77.61ZM189.174 80.978C189.192 81.157 189.221 81.468 189.258 81.889L188.357 82.187V81.107L189.174 80.977V80.978Z" fill="#1A1A1A"/>
<path d="M188.357 82.187V99.78L186.849 102.612L186.824 102.591C188.62 99.199 188.108 87.899 187.648 82.425L188.357 82.185V82.187Z" fill="#1A1A1A"/>
<path d="M188.356 81.107V82.187L187.649 82.426C187.618 82.066 187.588 81.731 187.56 81.427L188.356 81.107Z" fill="#1A1A1A"/>
<path d="M188.357 81.107L187.56 81.427C187.554 81.3622 187.547 81.2976 187.54 81.233L188.357 81.107Z" fill="#1A1A1A"/>
<path d="M187.649 82.426C188.109 87.9 188.62 99.2 186.826 102.592C186.765 102.709 186.698 102.82 186.625 102.925C186.539 103.072 186.427 103.192 186.298 103.276C186.17 103.36 186.027 103.406 185.882 103.41H185.757C182.629 103.268 179.511 97.42 178.164 86.24C181.403 84.72 184.631 83.462 187.649 82.426Z" fill="#FFC800"/>
<path d="M187.56 81.427C187.588 81.731 187.618 82.066 187.649 82.426C184.631 83.466 181.403 84.714 178.163 86.236C178.123 85.906 178.085 85.574 178.049 85.236L187.56 81.427ZM185.881 103.409C186.026 103.405 186.168 103.359 186.296 103.275C186.425 103.191 186.537 103.072 186.623 102.925C186.697 102.82 186.763 102.708 186.824 102.592L186.849 102.612L185.872 104.45L185.894 103.409H185.881Z" fill="#1A1A1A"/>
<path d="M185.894 103.409L185.872 104.45L183.781 103.409C184.794 103.397 185.479 103.409 185.757 103.409H185.894Z" fill="#1A1A1A"/>
<path d="M187.857 104.302C187.615 104.668 187.313 104.964 186.972 105.169C186.631 105.374 186.259 105.484 185.881 105.49H185.672H185.858L185.879 104.45L186.855 102.612L188.363 99.781V82.186L189.264 81.889C189.615 85.965 190.647 100.317 187.857 104.302Z" fill="#1A1A1A"/>
<path d="M185.873 104.45L185.851 105.49H185.65C184.369 105.417 183.148 104.718 182.028 103.447C182.687 103.424 183.275 103.414 183.78 103.407L185.873 104.45Z" fill="#1A1A1A"/>
<path d="M185.649 105.49C184.131 105.461 174.259 105.374 163.733 107.902C159.052 109.025 154.888 110.505 151.299 112.313V111.732H149.653V113.189C148.778 113.677 147.918 114.206 147.074 114.774C141.663 118.415 138.081 123.049 136.428 128.544L134.888 127.805C136.689 121.821 140.532 116.815 146.313 112.929C150.865 109.868 156.632 107.488 163.451 105.854C170.814 104.09 177.856 103.582 182.028 103.449C183.146 104.712 184.368 105.411 185.649 105.49ZM182.804 102.91L183.78 103.401C183.275 103.401 182.689 103.418 182.028 103.441C180.769 102.005 179.643 99.839 178.712 97.021C176.826 91.306 175.83 83.227 175.83 73.656C175.83 57.426 176.701 45.687 177.038 41.759C177.616 41.62 178.181 41.487 178.731 41.359C178.454 44.426 177.476 56.503 177.476 73.656C177.466 77.1538 177.62 80.6493 177.937 84.124C177.61 84.273 177.285 84.4264 176.961 84.584L177.252 85.555L179.413 96.433L182.804 102.91Z" fill="#1A1A1A"/>
<path d="M178.163 86.236C179.509 97.416 182.636 103.264 185.756 103.405C185.478 103.405 184.793 103.389 183.78 103.405L182.803 102.914L179.413 96.439L177.252 85.562L177.544 86.533L178.163 86.236ZM177.168 40.328L178.801 40.596C178.801 40.613 178.773 40.873 178.731 41.36C178.182 41.484 177.618 41.618 177.038 41.759C177.118 40.843 177.165 40.352 177.168 40.328Z" fill="#1A1A1A"/>
<path d="M178.049 85.237C178.085 85.574 178.123 85.907 178.163 86.236L177.544 86.529L177.252 85.557L178.049 85.237Z" fill="#1A1A1A"/>
<path d="M178.049 85.237L177.252 85.555L176.961 84.583C177.29 84.427 177.62 84.275 177.937 84.123C177.972 84.497 178.01 84.868 178.049 85.237ZM151.299 179.335V217.846H0V110.692H104.955V111.732H0.822804V216.806H150.476L150.888 180.29L151.217 179.335H151.299Z" fill="#1A1A1A"/>
<path d="M151.299 112.306V179.335H151.214C150.692 179.051 150.172 178.764 149.653 178.474V113.189C150.197 112.881 150.746 112.586 151.299 112.306Z" fill="#1A1A1A"/>
<path d="M151.299 111.732V112.306C150.747 112.586 150.198 112.878 149.653 113.182V111.726L151.299 111.732ZM151.214 179.335L150.884 180.29L149.653 179.562V178.482L151.214 179.335Z" fill="#1A1A1A"/>
<path d="M150.886 180.29L150.557 181.243L149.65 180.744V179.562L150.886 180.29Z" fill="#1A1A1A"/>
<path d="M150.888 180.29L150.476 216.806H0.823608V111.732H104.958C104.958 112.08 104.958 112.427 104.97 112.772H1.64641V215.766H149.653V180.744L150.56 181.243L150.889 180.29H150.888Z" fill="#1A1A1A"/>
<path d="M149.653 180.744V215.766H1.64642V112.772H104.969C105.232 130.227 109.017 143.492 116.822 154.386C123.611 163.874 133.461 171.784 149.652 180.744H149.653Z" fill="url(#paint2_linear_1_1205)"/>
<path d="M149.653 179.562V180.752C133.461 171.784 123.612 163.874 116.825 154.386C109.018 143.483 105.233 130.219 104.971 112.772H105.779V111.732L106.848 122.269L107.776 131.424L111.893 144.076L116.214 150.295C117.124 151.739 118.088 153.128 119.102 154.457L123.79 161.202L138.279 172.792L149.653 179.562Z" fill="#1A1A1A"/>
<path d="M138.271 172.773L123.783 161.183L119.095 154.438C126.317 163.884 136.579 171.196 149.644 178.474V179.562L138.271 172.773Z" fill="#1A1A1A"/>
<path d="M116.216 150.285L119.103 154.446C118.089 153.117 117.126 151.729 116.216 150.285Z" fill="url(#paint3_linear_1_1205)"/>
<path d="M107.161 122.219C108.344 133.584 111.397 142.634 116.216 150.285L111.894 144.066L107.778 131.413L106.85 122.258L107.161 122.219ZM105.777 111.732V112.772H104.97C104.97 112.427 104.959 112.08 104.958 111.732H105.777ZM105.777 110.692V111.732H104.955V110.692H105.777Z" fill="#1A1A1A"/>
</g>
<defs>
<linearGradient id="paint0_linear_1_1205" x1="224.233" y1="69.079" x2="303.966" y2="91.8098" gradientUnits="userSpaceOnUse">
<stop offset="0.102" stop-color="#FF4F2B"/>
<stop offset="0.75" stop-color="white"/>
</linearGradient>
<linearGradient id="paint1_linear_1_1205" x1="337.125" y1="243.233" x2="247.623" y2="378.695" gradientUnits="userSpaceOnUse">
<stop stop-color="#FF4F2B"/>
<stop offset="0.43" stop-color="white"/>
</linearGradient>
<linearGradient id="paint2_linear_1_1205" x1="147.291" y1="123.592" x2="1.46126" y2="175.434" gradientUnits="userSpaceOnUse">
<stop stop-color="#FF4F2B"/>
<stop offset="0.67" stop-color="white"/>
</linearGradient>
<linearGradient id="paint3_linear_1_1205" x1="2761.62" y1="2820.91" x2="135.81" y2="3639.54" gradientUnits="userSpaceOnUse">
<stop stop-color="#FF4F2B"/>
<stop offset="0.67" stop-color="white"/>
</linearGradient>
<clipPath id="clip0_1_1205">
<rect width="392" height="448" fill="white"/>
</clipPath>
</defs>
</svg>
