<svg width="21" height="21" viewBox="0 0 21 21" fill="none" xmlns="http://www.w3.org/2000/svg">
<path d="M20.1343 10.281C20.1343 9.5119 19.5108 8.88839 18.7416 8.88839H11.7784V1.9251C11.7784 1.15595 11.1548 0.53244 10.3857 0.53244C9.61655 0.53244 8.99304 1.15595 8.99304 1.9251V8.88839H2.02974C1.2606 8.88839 0.637085 9.5119 0.637085 10.281C0.637085 11.0502 1.2606 11.6737 2.02974 11.6737H8.99304V18.637C8.99304 19.4061 9.61655 20.0297 10.3857 20.0297C11.1548 20.0297 11.7784 19.4061 11.7784 18.637V11.6737H18.7416C19.5108 11.6737 20.1343 11.0502 20.1343 10.281Z" fill="#000"/>
</svg>
